<svg width="40" height="40" viewBox="0 0 40 40" fill="none" xmlns="http://www.w3.org/2000/svg">
<path d="M20 0C17.3736 0 14.7728 0.517315 12.3463 1.52241C9.91982 2.5275 7.71504 4.00069 5.85786 5.85786C2.10714 9.60859 0 14.6957 0 20C0 28.84 5.74 36.34 13.68 39C14.68 39.16 15 38.54 15 38V34.62C9.46 35.82 8.28 31.94 8.28 31.94C7.36 29.62 6.06 29 6.06 29C4.24 27.76 6.2 27.8 6.2 27.8C8.2 27.94 9.26 29.86 9.26 29.86C11 32.9 13.94 32 15.08 31.52C15.26 30.22 15.78 29.34 16.34 28.84C11.9 28.34 7.24 26.62 7.24 19C7.24 16.78 8 15 9.3 13.58C9.1 13.08 8.4 11 9.5 8.3C9.5 8.3 11.18 7.76 15 10.34C16.58 9.9 18.3 9.68 20 9.68C21.7 9.68 23.42 9.9 25 10.34C28.82 7.76 30.5 8.3 30.5 8.3C31.6 11 30.9 13.08 30.7 13.58C32 15 32.76 16.78 32.76 19C32.76 26.64 28.08 28.32 23.62 28.82C24.34 29.44 25 30.66 25 32.52V38C25 38.54 25.32 39.18 26.34 39C34.28 36.32 40 28.84 40 20C40 17.3736 39.4827 14.7728 38.4776 12.3463C37.4725 9.91982 35.9993 7.71504 34.1421 5.85786C32.285 4.00069 30.0802 2.5275 27.6537 1.52241C25.2272 0.517315 22.6264 0 20 0Z" fill="#58A081"/>
</svg>
